<svg xmlns="http://www.w3.org/2000/svg" xmlns:xlink="http://www.w3.org/1999/xlink" width="25.728" height="34.367" viewBox="0 0 25.728 34.367">
  <defs>
    <linearGradient id="linear-gradient" x1="0.5" x2="0.5" y2="1" gradientUnits="objectBoundingBox">
      <stop offset="0" stop-color="#00d0d8"/>
      <stop offset="1" stop-color="#3c7cfc"/>
    </linearGradient>
  </defs>
  <path id="Intersection_1" data-name="Intersection 1" d="M37.944,57.848a11.079,11.079,0,0,1-4.512-4.32A12.632,12.632,0,0,1,31.824,47.1v-9.84a12.5,12.5,0,0,1,1.608-6.408,11.123,11.123,0,0,1,4.512-4.3,14.212,14.212,0,0,1,6.744-1.535,14.837,14.837,0,0,1,6.72,1.463,11.088,11.088,0,0,1,4.536,4.009A10.3,10.3,0,0,1,57.552,36.1v.239a.573.573,0,0,1-.576.576H50.16a.573.573,0,0,1-.576-.576,4.349,4.349,0,0,0-1.319-3.191,4.833,4.833,0,0,0-3.577-1.32,4.628,4.628,0,0,0-3.551,1.44,5.266,5.266,0,0,0-1.345,3.744v10.32A4.976,4.976,0,0,0,41.28,51.08a5.169,5.169,0,0,0,3.744,1.44,5,5,0,0,0,3.407-1.129,3.946,3.946,0,0,0,1.3-3.144V46.9a.212.212,0,0,0-.239-.24h-4.8a.575.575,0,0,1-.576-.576v-5.28a.575.575,0,0,1,.576-.576H56.976a.575.575,0,0,1,.576.576v6.529a12.275,12.275,0,0,1-1.608,6.336A10.855,10.855,0,0,1,51.432,57.9a14.6,14.6,0,0,1-6.745,1.488A14.223,14.223,0,0,1,37.944,57.848Z" transform="translate(-31.824 -25.016)" fill="url(#linear-gradient)"/>
</svg>
